<?xml version="1.0" standalone="no"?>
<!DOCTYPE svg PUBLIC "-//W3C//DTD SVG 20010904//EN">
<svg version="1.0" xmlns="http://www.w3.org/2000/svg"
 width="1024.000000pt" height="1024.000000pt" viewBox="0 0 1024.000000 1024.000000"
 preserveAspectRatio="xMidYMid meet">
<metadata>
Created by potrace 1.14, written by Peter Selinger 2001-2017
</metadata>
<g transform="translate(0.000000,1024.000000) scale(0.100000,-0.100000)"
fill="#000000" stroke="none">
<path d="M0 5120 l0 -5120 5120 0 5120 0 0 5120 0 5120 -5120 0 -5120 0 0
-5120z m3593 3752 c257 -249 428 -555 444 -792 7 -105 -21 -228 -68 -301 -42
-65 -123 -138 -192 -172 l-56 -27 -3 -698 c-3 -692 -3 -697 -25 -737 -89 -165
-328 -166 -416 -2 l-22 42 -3 696 -3 696 -64 33 c-108 55 -199 162 -235 279
-66 210 21 492 238 770 88 114 238 269 265 274 48 10 83 -5 140 -61z m3270 0
c257 -249 428 -555 444 -792 7 -105 -21 -228 -68 -301 -42 -66 -127 -142 -194
-174 l-55 -26 0 -687 0 -687 -24 -51 c-54 -116 -189 -166 -306 -113 -60 27
-88 54 -116 114 l-24 50 0 686 0 687 -55 27 c-68 33 -153 109 -195 175 -140
219 -70 548 188 879 88 114 238 269 265 274 48 10 83 -5 140 -61z m-1617 -717
c277 -285 424 -566 424 -809 0 -206 -82 -347 -255 -441 l-60 -32 -5 -699 c-6
-774 -1 -723 -72 -791 -44 -42 -96 -63 -158 -63 -62 0 -114 21 -158 63 -71 68
-66 17 -72 791 l-5 700 -60 30 c-75 38 -174 135 -210 205 -136 270 2 656 370
1037 l81 84 54 0 c53 0 53 0 126 -75z m-3115 -2997 c46 -208 117 -363 216
-469 84 -89 147 -117 291 -130 245 -22 345 -84 512 -315 34 -49 79 -106 99
-127 83 -87 186 -124 321 -115 62 5 89 15 237 86 218 105 340 134 478 112 132
-20 212 -70 436 -268 155 -137 264 -179 439 -169 171 9 277 59 440 206 228
207 332 252 530 231 114 -12 196 -39 313 -104 134 -74 170 -87 244 -87 82 0
149 22 203 68 23 20 80 94 126 164 160 242 260 298 567 319 116 8 136 12 194
40 169 83 294 310 353 640 l18 105 1 -122 1 -122 118 -94 c212 -171 394 -374
506 -565 197 -337 238 -719 114 -1070 -130 -370 -440 -717 -895 -1005 -139
-88 -461 -248 -633 -316 -1348 -533 -3132 -533 -4480 0 -172 68 -494 228 -633
316 -683 431 -1029 993 -958 1556 50 397 277 757 684 1084 l117 94 1 142 c1
129 2 136 10 75 5 -37 18 -109 30 -160z"/>
<path d="M2071 4285 c-29 -63 -60 -167 -72 -239 -16 -103 -7 -280 21 -376 181
-640 1047 -1162 2230 -1344 313 -48 487 -60 870 -60 383 0 557 12 870 60 1069
164 1886 606 2160 1169 66 135 90 226 97 362 6 127 -6 228 -42 332 -49 146
-52 144 -57 -45 -7 -242 -49 -381 -168 -562 -249 -378 -738 -662 -1442 -837
-893 -222 -1943 -222 -2836 0 -893 222 -1441 621 -1584 1153 -15 56 -22 123
-27 247 -5 154 -7 166 -20 140z"/>
</g>
</svg>
